<?xml version="1.0" encoding="UTF-8"?>
<svg version="1.1" xmlns="http://www.w3.org/2000/svg" width="352" height="294">
<path d="M0 0 C0.70706085 0.00359528 1.4141217 0.00719055 2.14260864 0.01089478 C2.88402603 0.01074875 3.62544342 0.01060272 4.389328 0.01045227 C6.85130696 0.01115152 9.31321119 0.01894442 11.775177 0.02676392 C13.47768614 0.02862806 15.18019582 0.03005198 16.88270569 0.03105164 C21.37245148 0.03487714 25.86216513 0.0447077 30.35189819 0.05575562 C34.92983566 0.06596903 39.50777831 0.07054911 44.08572388 0.07559204 C53.07467032 0.08632994 62.06359287 0.10340675 71.05252075 0.12442017 C70.45064152 3.29276571 69.80335928 5.99538759 68.37283325 8.89004517 C68.02639771 9.60281616 67.67996216 10.31558716 67.32302856 11.04995728 C66.94501099 11.81703003 66.56699341 12.58410278 66.17752075 13.37442017 C62.39375655 21.2030314 58.79653489 29.09981757 55.30252075 37.06192017 C54.8553772 38.07866821 54.40823364 39.09541626 53.94754028 40.14297485 C51.29005698 46.21468866 48.71175532 52.31405145 46.19973755 58.44741821 C45.09668939 61.02135374 43.89379914 63.50885348 42.61502075 65.99942017 C39.99909945 71.0996441 37.78460422 76.34330026 35.5798645 81.63223267 C34.1862368 84.81868576 32.68717373 87.90802957 31.11672974 91.00869751 C26.13910091 100.90457532 21.44500059 110.94835115 17.275177 121.21035767 C15.62421214 125.14524516 13.80946475 128.99675644 11.98953247 132.85586548 C9.29013592 138.58795288 6.66685674 144.35310374 4.05252075 150.12442017 C-0.62155288 160.42993941 -5.35238258 170.70554968 -10.23654175 180.91348267 C-10.63413696 181.74661987 -11.03173218 182.57975708 -11.44137573 183.43814087 C-12.20884694 185.04482278 -12.978975 186.65023973 -13.75241089 188.25405884 C-15.60782631 192.13866476 -17.3351921 196.03295739 -18.9045105 200.04238892 C-21.35525579 206.27697391 -24.3030301 212.25080782 -27.23654175 218.26895142 C-29.71679881 223.40445299 -31.95770646 228.56746853 -34.03585815 233.87783813 C-35.23228761 236.82629658 -36.65578152 239.62096597 -38.13497925 242.43692017 C-41.20818717 248.399722 -43.85345474 254.50252367 -46.44747925 260.68692017 C-55.11334314 281.29028406 -55.11334314 281.29028406 -58.94747925 285.12442017 C-61.54843801 285.22483853 -64.12286649 285.26059067 -66.72433472 285.2538147 C-67.94627533 285.25644318 -67.94627533 285.25644318 -69.19290161 285.25912476 C-71.900178 285.26354503 -74.60738964 285.26060413 -77.31466675 285.25723267 C-79.18935153 285.25790579 -81.06403622 285.25887588 -82.9387207 285.26013184 C-86.87475411 285.26160915 -90.81076487 285.25945366 -94.74679565 285.25479126 C-99.79660793 285.24910179 -104.84636698 285.2523678 -109.89617729 285.25836372 C-113.7702881 285.26197511 -117.64438628 285.26082795 -121.51849747 285.25823593 C-123.38046398 285.25756786 -125.24243164 285.25839093 -127.10439682 285.26071548 C-129.70690708 285.26325058 -132.30933091 285.25938888 -134.91183472 285.2538147 C-135.68493988 285.25583893 -136.45804504 285.25786316 -137.25457764 285.25994873 C-140.42159581 285.24736122 -142.91994872 285.13359701 -145.94747925 284.12442017 C-147.00314331 282.53652954 -147.00314331 282.53652954 -147.96310425 280.46817017 C-148.32355835 279.70150024 -148.68401245 278.93483032 -149.0553894 278.14492798 C-149.43227905 277.3131604 -149.8091687 276.48139282 -150.19747925 275.62442017 C-150.59370483 274.76944946 -150.98993042 273.91447876 -151.39816284 273.03359985 C-154.24314712 266.83531216 -156.88022857 260.56404731 -159.43405151 254.24136353 C-162.00397051 247.90075938 -164.87560563 241.7235129 -167.80490112 235.54092407 C-170.34903348 230.16019285 -172.87035655 224.76899407 -175.38497925 219.37442017 C-175.92984985 218.21821167 -176.47472046 217.06200317 -177.03610229 215.87075806 C-177.54181763 214.7839978 -178.04753296 213.69723755 -178.568573 212.57754517 C-179.02675415 211.59946899 -179.4849353 210.62139282 -179.95700073 209.61367798 C-180.94747925 207.12442017 -180.94747925 207.12442017 -180.94747925 204.12442017 C-153.55747925 203.79442017 -126.16747925 203.46442017 -97.94747925 203.12442017 C-95.30747925 197.18442017 -92.66747925 191.24442017 -89.94747925 185.12442017 C-87.224823 179.64785767 -87.224823 179.64785767 -86.05636597 177.3656311 C-84.01700361 173.24380229 -82.28234849 168.99109161 -80.50997925 164.74942017 C-77.6057628 157.87231786 -74.55929894 151.16645865 -71.1388855 144.53067017 C-70.12006367 142.47298411 -69.27448726 140.47268532 -68.50997925 138.31192017 C-66.47113324 132.57766577 -63.72596645 127.14455839 -61.13253784 121.64639282 C-58.67622678 116.41901473 -56.24942027 111.17798101 -53.82247925 105.93692017 C-53.31982544 104.85684692 -52.81717163 103.77677368 -52.29928589 102.66397095 C-49.8603399 97.39462834 -47.50172591 92.11120651 -45.29122925 86.74160767 C-43.55361987 82.52135345 -41.69297614 78.47620815 -39.57247925 74.43692017 C-36.93040693 69.24999463 -34.61224566 64.02632256 -32.44747925 58.62442017 C-30.3416361 53.37183397 -28.10006406 48.2886328 -25.50997925 43.24942017 C-22.73311828 37.84445864 -20.32131114 32.36811511 -18.00997925 26.74942017 C-6.99215703 0.01499862 -6.99215703 0.01499862 0 0 Z " fill="#F8F8F8" transform="translate(276.9474792480469,4.875579833984375)"/>
<path d="M0 0 C7.25861128 -0.08356087 7.25861128 -0.08356087 10.28488159 1.04858398 C11.6253886 3.54066747 12.69534929 5.86884615 13.72238159 8.48608398 C14.32971092 9.95568105 14.93908539 11.42443461 15.55050659 12.89233398 C15.84505737 13.60776367 16.13960815 14.32319336 16.44308472 15.06030273 C17.81697119 18.30535246 19.41733685 21.42241642 21.04660034 24.54467773 C25.5980433 33.74806871 29.43868809 43.31625456 33.49777222 52.74487305 C36.88922837 60.6198819 40.35061557 68.4501792 43.97335815 76.22216797 C45.79264388 80.14284385 47.54660478 84.09144795 49.28488159 88.04858398 C52.49720702 84.30915872 54.17922744 80.03108556 56.09738159 75.54858398 C58.44939106 70.14221382 60.84781673 64.79964203 63.53488159 59.54858398 C65.65400369 55.38987788 67.47848923 51.21850534 69.16378784 46.86889648 C72.94840642 37.34800934 77.20517916 28.06232055 81.87081909 18.94311523 C83.85097625 14.88981011 85.53768762 10.73404084 87.20675659 6.54467773 C88.28488159 4.04858398 88.28488159 4.04858398 90.28488159 1.04858398 C93.29675293 0.68782043 93.29675293 0.68782043 97.21310425 0.70800781 C98.2815583 0.70735069 98.2815583 0.70735069 99.37159729 0.7066803 C101.73098971 0.70877388 104.0896755 0.73213073 106.44894409 0.75561523 C108.08275972 0.76120919 109.71658038 0.76548023 111.35040283 0.76847839 C115.65448861 0.77994304 119.95827157 0.80942391 124.26223755 0.84259033 C128.65255639 0.87325647 133.04292407 0.88697632 137.43331909 0.90209961 C146.05064569 0.93429228 154.66772599 0.9855079 163.28488159 1.04858398 C161.65463013 6.14840271 159.94909437 11.08627519 157.64035034 15.92749023 C157.13519897 16.99781494 156.63004761 18.06813965 156.10958862 19.17089844 C155.5693103 20.30615967 155.02903198 21.4414209 154.47238159 22.61108398 C148.83247187 34.57049125 143.46518271 46.63459876 138.21920776 58.77148438 C134.92404695 66.38291459 131.51469903 73.92830184 127.9838562 81.43334961 C126.39082642 84.82314484 124.8162328 88.22068504 123.24972534 91.62280273 C121.21090918 96.04710815 119.16088455 100.46594434 117.10128784 104.88061523 C109.69899457 120.73581987 109.69899457 120.73581987 102.60324097 136.72973633 C99.9383722 142.89183 97.09673106 148.96392931 94.22921753 155.03344727 C93.18551729 157.2606194 92.1603166 159.49582462 91.13644409 161.73217773 C90.41509712 163.29598314 89.69374309 164.85978528 88.97238159 166.42358398 C88.46590088 167.54011353 88.46590088 167.54011353 87.94918823 168.67919922 C85.51062518 173.93571219 85.51062518 173.93571219 83.28488159 175.04858398 C81.17697291 175.155693 79.06564026 175.19747033 76.95504761 175.2097168 C76.30608521 175.2146817 75.6571228 175.21964661 74.98849487 175.22476196 C72.83858181 175.23938452 70.68874249 175.24618517 68.53878784 175.25170898 C67.04667661 175.25745973 65.5545654 175.26321747 64.06245422 175.26898193 C60.93273575 175.27949175 57.80304297 175.28533474 54.67330933 175.28881836 C50.66032364 175.29430752 46.6476765 175.31834428 42.6347971 175.34679031 C39.55246483 175.3653998 36.47021444 175.37062135 33.38783073 175.37215424 C31.90822432 175.37518441 30.42861947 175.38322524 28.94906807 175.39633942 C26.8804853 175.41336781 24.81273425 175.41152836 22.74411011 175.4050293 C21.56655655 175.40867493 20.38900299 175.41232056 19.17576599 175.41607666 C16.28488159 175.04858398 16.28488159 175.04858398 14.44970703 173.64958191 C13.07594018 171.76140381 12.10958864 169.90144933 11.14816284 167.77124023 C10.74363892 166.88283447 10.33911499 165.99442871 9.92233276 165.07910156 C9.48509888 164.09965576 9.04786499 163.12020996 8.59738159 162.11108398 C8.1311438 161.08072021 7.66490601 160.05035645 7.18453979 158.98876953 C5.54127062 155.34649369 3.91092786 151.69856928 2.28488159 148.04858398 C1.96467041 147.33001221 1.64445923 146.61144043 1.31454468 145.87109375 C-1.81619243 138.84309353 -4.94372334 131.8136763 -8.05569458 124.77734375 C-11.44192196 117.12574513 -14.86315491 109.49712704 -18.41043091 101.91845703 C-20.23967439 97.89473751 -21.89899621 93.8085048 -23.53933716 89.70483398 C-24.63427561 87.05909552 -24.63427561 87.05909552 -26.10964966 84.82983398 C-27.96939793 81.60808029 -29.25027334 78.31949053 -30.59939575 74.85864258 C-32.6072664 69.80162045 -34.8293698 64.83759502 -37.02761841 59.86108398 C-37.5139978 58.75756592 -38.0003772 57.65404785 -38.50149536 56.51708984 C-41.59272913 49.52578281 -44.76368194 42.58200473 -48.02761841 35.66967773 C-51.02873506 29.22978159 -53.89650207 22.72889703 -56.74783325 16.22143555 C-57.42961831 14.68991435 -58.12962207 13.16643977 -58.84255981 11.64916992 C-59.20913696 10.86058594 -59.57571411 10.07200195 -59.95339966 9.25952148 C-60.2902478 8.54844238 -60.62709595 7.83736328 -60.97415161 7.10473633 C-61.71511841 5.04858398 -61.71511841 5.04858398 -61.71511841 1.04858398 C-54.17792587 0.91728486 -46.64071906 0.78683286 -39.10349369 0.65743256 C-35.6028529 0.597307 -32.10221746 0.53690061 -28.60159302 0.47583008 C-24.56783475 0.40547146 -20.5340557 0.33637452 -16.50027466 0.26733398 C-15.25617325 0.24546021 -14.01207184 0.22358643 -12.73027039 0.2010498 C-8.48690899 0.12908701 -4.24328326 0.07592877 0 0 Z " fill="#F8F8F8" transform="translate(66.71511840820313,3.951416015625)"/>
<path d="M0 0 C3.61299672 -0.04159269 6.80915622 0.06887889 10.28488159 1.04858398 C10.77988159 3.02858398 10.77988159 3.02858398 11.28488159 5.04858398 C10.62488159 5.04858398 9.96488159 5.04858398 9.28488159 5.04858398 C9.28488159 4.05858398 9.28488159 3.06858398 9.28488159 2.04858398 C-13.15511841 2.04858398 -35.59511841 2.04858398 -58.71511841 2.04858398 C-59.04511841 3.69858398 -59.37511841 5.34858398 -59.71511841 7.04858398 C-60.37511841 6.38858398 -61.03511841 5.72858398 -61.71511841 5.04858398 C-61.71511841 3.72858398 -61.71511841 2.40858398 -61.71511841 1.04858398 C-54.17792587 0.91728486 -46.64071906 0.78683286 -39.10349369 0.65743256 C-35.6028529 0.597307 -32.10221746 0.53690061 -28.60159302 0.47583008 C-24.56783475 0.40547146 -20.5340557 0.33637452 -16.50027466 0.26733398 C-15.25617325 0.24546021 -14.01207184 0.22358643 -12.73027039 0.2010498 C-8.48690899 0.12908701 -4.24328326 0.07592877 0 0 Z " fill="#B3B3B2" transform="translate(66.71511840820313,3.951416015625)"/>
<path d="M0 0 C24.09 0 48.18 0 73 0 C72.34 1.98 71.68 3.96 71 6 C70.67 6 70.34 6 70 6 C70 4.35 70 2.7 70 1 C61.03798012 1.1074141 52.07604527 1.22002958 43.1141758 1.33933926 C38.95309752 1.39457122 34.79201222 1.44799165 30.63085938 1.49731445 C26.61728058 1.54495399 22.60378848 1.59729664 18.59031296 1.65294075 C17.05689011 1.67336617 15.52344349 1.69207895 13.98997879 1.70907402 C11.84690991 1.73311395 9.70400538 1.76316889 7.56103516 1.79467773 C5.72903061 1.81799416 5.72903061 1.81799416 3.86001587 1.84178162 C1.05488886 1.80708643 1.05488886 1.80708643 -1 3 C-0.67 2.01 -0.34 1.02 0 0 Z " fill="#C6C6C6" transform="translate(157,5)"/>
<path d="M0 0 C0.12375 0.639375 0.2475 1.27875 0.375 1.9375 C0.684375 2.9584375 0.684375 2.9584375 1 4 C1.66 4.33 2.32 4.66 3 5 C2.360625 5.433125 1.72125 5.86625 1.0625 6.3125 C-1.26746003 7.91239177 -1.26746003 7.91239177 -2 11 C-2.66 11 -3.32 11 -4 11 C-2.95902388 7.13351728 -1.96301592 3.50538557 0 0 Z " fill="#8F8F8E" transform="translate(265,18)"/>
<path d="M0 0 C0.95904856 3.83619425 0.91892116 5.32431536 0 9 C-0.99 9 -1.98 9 -3 9 C-2.01 6.03 -1.02 3.06 0 0 Z " fill="#858585" transform="translate(141,39)"/>
<path d="" fill="#000000" transform="translate(0,0)"/>
<path d="" fill="#000000" transform="translate(0,0)"/>
<path d="" fill="#000000" transform="translate(0,0)"/>
<path d="" fill="#000000" transform="translate(0,0)"/>
<path d="" fill="#000000" transform="translate(0,0)"/>
<path d="" fill="#000000" transform="translate(0,0)"/>
<path d="" fill="#000000" transform="translate(0,0)"/>
<path d="" fill="#000000" transform="translate(0,0)"/>
<path d="" fill="#000000" transform="translate(0,0)"/>
<path d="" fill="#000000" transform="translate(0,0)"/>
<path d="" fill="#000000" transform="translate(0,0)"/>
<path d="" fill="#000000" transform="translate(0,0)"/>
<path d="" fill="#000000" transform="translate(0,0)"/>
<path d="" fill="#000000" transform="translate(0,0)"/>
<path d="" fill="#000000" transform="translate(0,0)"/>
<path d="" fill="#000000" transform="translate(0,0)"/>
<path d="" fill="#000000" transform="translate(0,0)"/>
<path d="" fill="#000000" transform="translate(0,0)"/>
<path d="" fill="#000001" transform="translate(0,0)"/>
<path d="" fill="#000000" transform="translate(0,0)"/>
<path d="" fill="#000000" transform="translate(0,0)"/>
<path d="" fill="#000000" transform="translate(0,0)"/>
<path d="" fill="#000000" transform="translate(0,0)"/>
<path d="" fill="#000000" transform="translate(0,0)"/>
<path d="" fill="#000000" transform="translate(0,0)"/>
<path d="" fill="#000000" transform="translate(0,0)"/>
<path d="" fill="#000000" transform="translate(0,0)"/>
<path d="" fill="#000000" transform="translate(0,0)"/>
<path d="" fill="#000000" transform="translate(0,0)"/>
</svg>
