<?xml version="1.0" encoding="UTF-8"?>
<svg version="1.1" xmlns="http://www.w3.org/2000/svg" width="1024" height="1024">
<path d="M0 0 C337.92 0 675.84 0 1024 0 C1024 337.92 1024 675.84 1024 1024 C686.08 1024 348.16 1024 0 1024 C0 686.08 0 348.16 0 0 Z " fill="#100E0D" transform="translate(0,0)"/>
<path d="M0 0 C24.75 0 49.5 0 75 0 C74.24036689 3.79816554 73.60315585 6.20381833 72.0234375 9.578125 C71.60803711 10.47394287 71.19263672 11.36976074 70.76464844 12.29272461 C70.30606445 13.26862549 69.84748047 14.24452637 69.375 15.25 C68.36649222 17.42285451 67.35871978 19.59605043 66.3515625 21.76953125 C65.80918945 22.93693848 65.26681641 24.1043457 64.70800781 25.30712891 C62.0037443 31.14195816 59.35099696 37.00030714 56.69403076 42.85678101 C55.41372942 45.67866713 54.13208623 48.49994308 52.85049438 51.32124329 C52.19919962 52.75503921 51.54797506 54.18886703 50.89682007 55.62272644 C48.72474423 60.40558345 46.5505515 65.18747305 44.375 69.96875 C40.5795143 78.31076681 36.78824824 86.65469409 33 95 C32.62278809 95.83090149 32.24557617 96.66180298 31.85693359 97.5178833 C19.01890903 125.79090936 19.01890903 125.79090936 6.44091797 154.18017578 C2.50871015 163.15759823 -1.60333952 172.03615903 -5.86328125 180.86328125 C-11.12670017 191.81454736 -16.08606913 202.8888195 -21 214 C-29.38864158 232.96754152 -29.38864158 232.96754152 -33.5625 241.6875 C-40.23922779 255.69922452 -46.57728882 269.87003541 -53 284 C-81.71 284 -110.42 284 -140 284 C-144.59091273 274.81817455 -149.03236257 265.68337011 -153.1875 256.3125 C-153.7430437 255.06619863 -154.2988767 253.82002618 -154.85498047 252.57397461 C-157.43281818 246.79349045 -159.99731516 241.00708381 -162.56288147 235.22114563 C-163.11845148 233.96831328 -163.67414423 232.71553536 -164.22996521 231.46281433 C-165.53209338 228.52802958 -166.83255243 225.59253502 -168.12963867 222.65551758 C-170.84703174 216.47968981 -170.84703174 216.47968981 -173.8359375 210.43359375 C-175 208 -175 208 -175 205 C-147.61 205 -120.22 205 -92 205 C-91.01 202.03 -90.02 199.06 -89 196 C-88.14695193 193.98769756 -87.25643762 191.99064953 -86.3203125 190.015625 C-85.55630127 188.39019775 -85.55630127 188.39019775 -84.77685547 186.73193359 C-84.23174316 185.58289551 -83.68663086 184.43385742 -83.125 183.25 C-81.93947466 180.7280734 -80.75849696 178.20402956 -79.578125 175.6796875 C-79.12691788 174.71592697 -79.12691788 174.71592697 -78.66659546 173.73269653 C-75.66610746 167.31135938 -72.76216226 160.84801687 -69.875 154.375 C-68.7958248 151.95822036 -67.71649397 149.5415115 -66.63671875 147.125 C-66.35444931 146.49320831 -66.07217987 145.86141663 -65.78135681 145.21047974 C-61.77626018 136.25352562 -57.73151458 127.31443242 -53.6875 118.375 C-53.28103241 117.4763623 -52.87456482 116.57772461 -52.45578003 115.65185547 C-46.65972951 102.84102779 -40.82795727 90.04698224 -34.97024536 77.26425171 C-28.73909756 63.66243061 -22.5905705 50.02398938 -16.46459961 36.37451172 C-11.01327332 24.23232013 -5.50782486 12.11721468 0 0 Z " fill="#FDFDFD" transform="translate(611,370)"/>
<path d="M0 0 C23.43 0 46.86 0 71 0 C79.46776886 18.75005961 87.92697978 37.50260181 96.33398438 56.27978516 C99.03032495 62.30151863 101.72997354 68.32176982 104.4291687 74.34222412 C105.82398095 77.45336139 107.21862462 80.56457422 108.61328125 83.67578125 C109.07516846 84.70614502 109.53705566 85.73650879 110.01293945 86.7980957 C110.33866943 87.52472412 110.66439941 88.25135254 111 89 C113.79234131 85.62543706 115.5547933 81.93835013 117.3359375 77.97265625 C117.80943382 76.93384056 117.80943382 76.93384056 118.29249573 75.8740387 C119.32484503 73.60569242 120.35006884 71.33420658 121.375 69.0625 C122.09285042 67.48015628 122.81103442 65.89796384 123.52954102 64.31591797 C125.34836936 60.30709052 127.16068839 56.29536076 128.97039795 52.28240967 C129.93756188 50.13841209 130.9062142 47.99509505 131.87548828 45.85205078 C133.56683541 42.11149776 135.25312891 38.36870005 136.9375 34.625 C137.41944824 33.55515869 137.90139648 32.48531738 138.39794922 31.38305664 C143.06079391 20.97337036 147.5047153 10.48899764 152 0 C175.76 0 199.52 0 224 0 C223.05850636 4.7074682 221.54951112 8.50161184 219.52734375 12.7890625 C218.99559036 13.93378021 218.99559036 13.93378021 218.45309448 15.10162354 C217.68688686 16.74949558 216.91822275 18.3962272 216.14736938 20.04193115 C214.50190208 23.55500073 212.86830578 27.07354928 211.23374939 30.59170532 C210.39166669 32.40366869 209.54893802 34.21533198 208.70558167 36.02670288 C204.70276822 44.62531768 200.75026933 53.24644522 196.8125 61.875 C196.15227839 63.32048258 195.49204075 64.76595783 194.83178711 66.21142578 C190.06664191 76.64729938 185.31936259 87.09127863 180.57495117 97.53659058 C175.99821935 107.61231945 171.41184724 117.68359592 166.8125 127.74902344 C166.16959262 129.15601117 165.52683895 130.56306916 164.88427734 131.97021484 C158.62966408 145.66548634 152.30939172 159.32965128 146 173 C123.23 173 100.46 173 77 173 C66.74134712 151.34284392 66.74134712 151.34284392 62.5 141.6875 C61.47837221 139.37607765 60.4562036 137.06489429 59.43359375 134.75390625 C59.16489975 134.14609314 58.89620575 133.53828003 58.61936951 132.91204834 C54.95966523 124.63814278 51.25921556 116.38241602 47.5625 108.125 C46.82413607 106.47534238 46.08577344 104.82568417 45.34741211 103.17602539 C43.55882774 99.18032358 41.76975227 95.18484189 39.98046875 91.18945312 C39.07408038 89.1654265 38.16786086 87.14132439 37.26171875 85.1171875 C32.01109813 73.38952393 26.7514768 61.66597312 21.4765625 49.94921875 C21.0813591 49.0713269 20.6861557 48.19343506 20.27897644 47.28894043 C18.33391012 42.96851155 16.38827362 38.64834091 14.44165039 34.32861328 C12.65169795 30.35579625 10.86569583 26.38121991 9.08148193 22.40582275 C7.95026974 19.88937199 6.81417409 17.37515433 5.67822266 14.86083984 C4.93762179 13.21330771 4.19721755 11.56568718 3.45703125 9.91796875 C3.1089592 9.15067947 2.76088715 8.3833902 2.40226746 7.59284973 C0 2.22739151 0 2.22739151 0 0 Z " fill="#FDFDFD" transform="translate(344,370)"/>
<path d="M0 0 C23.76 0 47.52 0 72 0 C72 0.99 72 1.98 72 3 C71.01 2.67 70.02 2.34 69 2 C66.77663393 1.91028673 64.55061107 1.88242147 62.32543945 1.88647461 C61.652005 1.88632858 60.97857056 1.88618256 60.284729 1.8860321 C58.06088021 1.88672825 55.83711539 1.89450668 53.61328125 1.90234375 C52.07057236 1.90420899 50.52786289 1.90563239 48.9851532 1.90663147 C44.92616132 1.91044831 40.86720527 1.92027149 36.80822754 1.93133545 C32.66577641 1.94156748 28.5233195 1.94613293 24.38085938 1.95117188 C16.25388982 1.96189449 8.12694937 1.97896093 0 2 C0 1.34 0 0.68 0 0 Z " fill="#D6D5D5" transform="translate(496,370)"/>
<path d="M0 0 C0.66 0 1.32 0 2 0 C1.57781184 1.6498275 1.13675575 3.29483665 0.6875 4.9375 C0.44386719 5.85402344 0.20023437 6.77054688 -0.05078125 7.71484375 C-0.36402344 8.46894531 -0.67726563 9.22304688 -1 10 C-1.99 10.33 -2.98 10.66 -4 11 C-3.52269162 9.5410574 -3.04308958 8.08286504 -2.5625 6.625 C-2.29566406 5.81289063 -2.02882813 5.00078125 -1.75390625 4.1640625 C-1 2 -1 2 0 0 Z " fill="#1D1D1C" transform="translate(501,517)"/>
<path d="M0 0 C0.66 0 1.32 0 2 0 C1.52269162 1.4589426 1.04308958 2.91713496 0.5625 4.375 C0.29566406 5.18710937 0.02882813 5.99921875 -0.24609375 6.8359375 C-1 9 -1 9 -2 11 C-2.66 11 -3.32 11 -4 11 C-3.52269162 9.5410574 -3.04308958 8.08286504 -2.5625 6.625 C-2.29566406 5.81289063 -2.02882813 5.00078125 -1.75390625 4.1640625 C-1 2 -1 2 0 0 Z " fill="#1A1A1A" transform="translate(512,493)"/>
<path d="M0 0 C0.33 0 0.66 0 1 0 C1.3227506 4.62609198 0.84450614 7.28026121 -2 11 C-2.66 11 -3.32 11 -4 11 C-3.52269162 9.5410574 -3.04308958 8.08286504 -2.5625 6.625 C-2.29566406 5.81289063 -2.02882813 5.00078125 -1.75390625 4.1640625 C-1 2 -1 2 0 0 Z " fill="#1E1D1D" transform="translate(542,427)"/>
</svg>
